<mxfile host="app.diagrams.net" modified="2020-08-03T10:28:44.969Z" agent="5.0 (Windows NT 10.0; Win64; x64) AppleWebKit/537.36 (KHTML, like Gecko) Chrome/84.0.4147.105 Safari/537.36" etag="8La-Ck5Sto29rlBPRCV2" version="13.5.7" type="github">
  <diagram id="1lOJ9h_yURZZoM6YKi_j" name="第 1 页">
    <mxGraphModel dx="1422" dy="762" grid="1" gridSize="10" guides="1" tooltips="1" connect="1" arrows="1" fold="1" page="1" pageScale="1" pageWidth="3000" pageHeight="4000" math="0" shadow="0">
      <root>
        <mxCell id="0" />
        <mxCell id="1" parent="0" />
        <mxCell id="nqZtjDTNPkWTbWWxpunj-4" style="edgeStyle=orthogonalEdgeStyle;rounded=0;orthogonalLoop=1;jettySize=auto;html=1;" edge="1" parent="1" source="nqZtjDTNPkWTbWWxpunj-1" target="nqZtjDTNPkWTbWWxpunj-2">
          <mxGeometry relative="1" as="geometry" />
        </mxCell>
        <mxCell id="nqZtjDTNPkWTbWWxpunj-1" value="&lt;pre style=&quot;background-color: rgb(255 , 255 , 255) ; font-family: &amp;#34;courier new&amp;#34; ; font-size: 10.5pt&quot;&gt;@EnableFeignClients&lt;/pre&gt;" style="rounded=0;whiteSpace=wrap;html=1;" vertex="1" parent="1">
          <mxGeometry x="190" y="40" width="270" height="50" as="geometry" />
        </mxCell>
        <mxCell id="nqZtjDTNPkWTbWWxpunj-5" style="edgeStyle=orthogonalEdgeStyle;rounded=0;orthogonalLoop=1;jettySize=auto;html=1;" edge="1" parent="1" source="nqZtjDTNPkWTbWWxpunj-2" target="nqZtjDTNPkWTbWWxpunj-3">
          <mxGeometry relative="1" as="geometry" />
        </mxCell>
        <mxCell id="nqZtjDTNPkWTbWWxpunj-2" value="&lt;pre style=&quot;background-color: rgb(255 , 255 , 255) ; font-family: &amp;#34;courier new&amp;#34; ; font-size: 10.5pt&quot;&gt;FeignClientsRegistrar&lt;/pre&gt;" style="rounded=0;whiteSpace=wrap;html=1;" vertex="1" parent="1">
          <mxGeometry x="190" y="210" width="270" height="60" as="geometry" />
        </mxCell>
        <mxCell id="nqZtjDTNPkWTbWWxpunj-11" style="edgeStyle=orthogonalEdgeStyle;rounded=0;orthogonalLoop=1;jettySize=auto;html=1;entryX=0.5;entryY=0;entryDx=0;entryDy=0;" edge="1" parent="1" source="nqZtjDTNPkWTbWWxpunj-3" target="nqZtjDTNPkWTbWWxpunj-10">
          <mxGeometry relative="1" as="geometry" />
        </mxCell>
        <mxCell id="nqZtjDTNPkWTbWWxpunj-3" value="&lt;pre style=&quot;background-color: rgb(255 , 255 , 255) ; font-family: &amp;#34;courier new&amp;#34; ; font-size: 10.5pt&quot;&gt;&lt;span style=&quot;font-size: 10.5pt&quot;&gt;FeignClientsRegistrar.&lt;/span&gt;registerBeanDefinitions&lt;/pre&gt;" style="rounded=0;whiteSpace=wrap;html=1;" vertex="1" parent="1">
          <mxGeometry x="130" y="330" width="390" height="50" as="geometry" />
        </mxCell>
        <mxCell id="nqZtjDTNPkWTbWWxpunj-6" value="&lt;pre style=&quot;background-color: rgb(255 , 255 , 255) ; font-family: &amp;#34;courier new&amp;#34; ; font-size: 10.5pt&quot;&gt;&lt;pre style=&quot;font-family: &amp;#34;courier new&amp;#34; ; font-size: 10.5pt&quot;&gt;因为加了@Import，所以会加载&lt;/pre&gt;&lt;/pre&gt;" style="text;html=1;strokeColor=none;fillColor=none;align=center;verticalAlign=middle;whiteSpace=wrap;rounded=0;" vertex="1" parent="1">
          <mxGeometry x="350" y="120" width="200" height="40" as="geometry" />
        </mxCell>
        <mxCell id="nqZtjDTNPkWTbWWxpunj-13" style="edgeStyle=orthogonalEdgeStyle;rounded=0;orthogonalLoop=1;jettySize=auto;html=1;" edge="1" parent="1" source="nqZtjDTNPkWTbWWxpunj-10" target="nqZtjDTNPkWTbWWxpunj-12">
          <mxGeometry relative="1" as="geometry" />
        </mxCell>
        <mxCell id="nqZtjDTNPkWTbWWxpunj-10" value="&lt;pre style=&quot;background-color: rgb(255 , 255 , 255) ; font-family: &amp;#34;courier new&amp;#34; ; font-size: 10.5pt&quot;&gt;&lt;span style=&quot;color: #000080 ; font-weight: bold&quot;&gt;this&lt;/span&gt;.registerFeignClients&lt;/pre&gt;" style="rounded=0;whiteSpace=wrap;html=1;" vertex="1" parent="1">
          <mxGeometry x="130" y="440" width="390" height="70" as="geometry" />
        </mxCell>
        <mxCell id="nqZtjDTNPkWTbWWxpunj-15" style="edgeStyle=orthogonalEdgeStyle;rounded=0;orthogonalLoop=1;jettySize=auto;html=1;" edge="1" parent="1" source="nqZtjDTNPkWTbWWxpunj-12" target="nqZtjDTNPkWTbWWxpunj-14">
          <mxGeometry relative="1" as="geometry" />
        </mxCell>
        <mxCell id="nqZtjDTNPkWTbWWxpunj-12" value="&lt;pre style=&quot;background-color: rgb(255 , 255 , 255) ; font-family: &amp;#34;courier new&amp;#34; ; font-size: 10.5pt&quot;&gt;registerFeignClient&lt;/pre&gt;" style="rounded=0;whiteSpace=wrap;html=1;" vertex="1" parent="1">
          <mxGeometry x="130" y="560" width="390" height="60" as="geometry" />
        </mxCell>
        <mxCell id="nqZtjDTNPkWTbWWxpunj-14" value="&lt;pre style=&quot;background-color: rgb(255 , 255 , 255) ; font-family: &amp;#34;courier new&amp;#34; ; font-size: 10.5pt&quot;&gt;FeignClientFactoryBean&lt;/pre&gt;" style="rounded=0;whiteSpace=wrap;html=1;" vertex="1" parent="1">
          <mxGeometry x="130" y="770" width="390" height="80" as="geometry" />
        </mxCell>
        <mxCell id="nqZtjDTNPkWTbWWxpunj-17" value="&lt;pre style=&quot;background-color: rgb(255 , 255 , 255) ; font-family: &amp;#34;courier new&amp;#34; ; font-size: 10.5pt&quot;&gt;&lt;br&gt;&lt;/pre&gt;" style="text;html=1;align=center;verticalAlign=middle;resizable=0;points=[];autosize=1;rotation=0;" vertex="1" parent="1">
          <mxGeometry x="905" y="550" width="20" height="50" as="geometry" />
        </mxCell>
        <mxCell id="nqZtjDTNPkWTbWWxpunj-18" value="&lt;pre style=&quot;background-color: rgb(255 , 255 , 255) ; font-family: &amp;#34;courier new&amp;#34; ; font-size: 10.5pt&quot;&gt;&lt;b&gt;注册到bean工厂注册到容器里面&lt;/b&gt;&lt;/pre&gt;&lt;pre style=&quot;background-color: rgb(255 , 255 , 255) ; font-family: &amp;#34;courier new&amp;#34; ; font-size: 10.5pt&quot;&gt;&lt;b&gt;BeanDefinitionBuilder.genericBeanDefinition&lt;/b&gt;&lt;/pre&gt;&lt;pre style=&quot;background-color: rgb(255 , 255 , 255) ; font-family: &amp;#34;courier new&amp;#34; ; font-size: 10.5pt&quot;&gt;&lt;b&gt;(FeignClientFactoryBean.&lt;span style=&quot;color: rgb(0 , 0 , 128)&quot;&gt;class&lt;/span&gt;);&lt;/b&gt;&lt;/pre&gt;" style="text;html=1;strokeColor=#82b366;fillColor=#d5e8d4;align=center;verticalAlign=middle;whiteSpace=wrap;rounded=0;" vertex="1" parent="1">
          <mxGeometry x="435" y="630" width="470" height="120" as="geometry" />
        </mxCell>
        <mxCell id="nqZtjDTNPkWTbWWxpunj-19" value="&lt;pre style=&quot;background-color: rgb(255 , 255 , 255) ; font-family: &amp;#34;courier new&amp;#34; ; font-size: 10.5pt&quot;&gt;&lt;span style=&quot;color: #000080 ; font-weight: bold&quot;&gt;扫描&lt;/span&gt;&lt;/pre&gt;&lt;pre style=&quot;background-color: rgb(255 , 255 , 255) ; font-family: &amp;#34;courier new&amp;#34; ; font-size: 10.5pt&quot;&gt;&lt;span style=&quot;color: #000080 ; font-weight: bold&quot;&gt;new &lt;/span&gt;AnnotationTypeFilter(FeignClient.&lt;span style=&quot;color: #000080 ; font-weight: bold&quot;&gt;class&lt;/span&gt;)&lt;/pre&gt;" style="rounded=0;whiteSpace=wrap;html=1;" vertex="1" parent="1">
          <mxGeometry x="600" y="380" width="390" height="90" as="geometry" />
        </mxCell>
      </root>
    </mxGraphModel>
  </diagram>
</mxfile>
